<?xml version="1.0" encoding="UTF-8" standalone="no"?>
<svg width="30px" height="31px" viewBox="0 0 30 31" version="1.1" xmlns="http://www.w3.org/2000/svg" xmlns:xlink="http://www.w3.org/1999/xlink" xmlns:sketch="http://www.bohemiancoding.com/sketch/ns">
    <!-- Generator: Sketch 3.3.2 (12043) - http://www.bohemiancoding.com/sketch -->
    <title>facebook_L</title>
    <desc>Created with Sketch.</desc>
    <defs></defs>
    <g id="Layouts" stroke="none" stroke-width="1" fill="none" fill-rule="evenodd" sketch:type="MSPage">
        <g id="Flair-Pre-Launch-Page" sketch:type="MSArtboardGroup" transform="translate(-1181.000000, -2883.000000)" fill="#16ACCF">
            <g id="Group" sketch:type="MSLayerGroup" transform="translate(0.000000, 989.000000)">
                <path d="M1196,1924.3 C1204.28427,1924.3 1211,1917.58427 1211,1909.3 C1211,1901.01573 1204.28427,1894.3 1196,1894.3 C1187.71573,1894.3 1181,1901.01573 1181,1909.3 C1181,1917.58427 1187.71573,1924.3 1196,1924.3 Z M1196,1923.1 C1203.62153,1923.1 1209.8,1916.92153 1209.8,1909.3 C1209.8,1901.67847 1203.62153,1895.5 1196,1895.5 C1188.37847,1895.5 1182.2,1901.67847 1182.2,1909.3 C1182.2,1916.92153 1188.37847,1923.1 1196,1923.1 Z M1197.8048,1899.6172 C1197.1748,1899.6172 1196.57,1899.6928 1195.8644,1899.97 C1194.428,1900.5496 1193.6972,1901.9104 1193.6972,1904.0272 L1193.6972,1906.0936 L1191.6812,1906.0936 L1191.6812,1909.546 L1193.6972,1909.546 L1193.6972,1919.5 L1197.8048,1919.5 L1197.8048,1909.546 L1200.602,1909.546 L1200.98,1906.0936 L1197.8048,1906.0936 L1197.8048,1904.5312 C1197.8048,1904.0524 1197.8552,1903.6996 1197.9812,1903.498 C1198.1576,1903.1956 1198.5104,1903.0444 1199.0648,1903.0444 L1200.9296,1903.0444 L1200.9296,1899.6172 L1197.8048,1899.6172 Z" id="facebook_L" sketch:type="MSShapeGroup"></path>
            </g>
        </g>
    </g>
</svg>