<?xml version="1.0" encoding="UTF-8" standalone="no"?>
<svg
   xmlns:dc="http://purl.org/dc/elements/1.1/"
   xmlns:cc="http://creativecommons.org/ns#"
   xmlns:rdf="http://www.w3.org/1999/02/22-rdf-syntax-ns#"
   xmlns:svg="http://www.w3.org/2000/svg"
   xmlns="http://www.w3.org/2000/svg"
   xmlns:sodipodi="http://sodipodi.sourceforge.net/DTD/sodipodi-0.dtd"
   xmlns:inkscape="http://www.inkscape.org/namespaces/inkscape"
   height="30"
   version="1.1"
   viewBox="0 0 30 30"
   width="30"
   id="svg2"
   inkscape:version="0.91 r13725"
   sodipodi:docname="googleplus-circle.svg">
  <metadata
     id="metadata12">
    <rdf:RDF>
      <cc:Work
         rdf:about="">
        <dc:format>image/svg+xml</dc:format>
        <dc:type
           rdf:resource="http://purl.org/dc/dcmitype/StillImage" />
        <dc:title></dc:title>
      </cc:Work>
    </rdf:RDF>
  </metadata>
  <sodipodi:namedview
     pagecolor="#ffffff"
     bordercolor="#666666"
     borderopacity="1"
     objecttolerance="10"
     gridtolerance="10"
     guidetolerance="10"
     inkscape:pageopacity="0"
     inkscape:pageshadow="2"
     inkscape:window-width="1366"
     inkscape:window-height="716"
     id="namedview10"
     showgrid="false"
     inkscape:zoom="10"
     inkscape:cx="11"
     inkscape:cy="11"
     inkscape:window-x="-8"
     inkscape:window-y="-8"
     inkscape:window-maximized="1"
     inkscape:current-layer="svg2" />
  <defs
     id="defs6" />
  <g
     id="miu"
     style="fill:#ffffff;fill-rule:evenodd;stroke:none;stroke-width:1"
     transform="scale(1.3636364,1.3636364)">
    <path
       d="m 14.384615,11.423077 -1.692307,0 0,-0.846154 1.692307,0 0,-1.6923076 0.846154,0 0,1.6923076 1.692308,0 0,0.846154 -1.692308,0 0,1.692308 -0.846154,0 0,-1.692308 z M 11,22 C 17.075132,22 22,17.075132 22,11 22,4.9248674 17.075132,0 11,0 4.9248674,0 0,4.9248674 0,11 0,17.075132 4.9248674,22 11,22 Z m 0,-1 C 16.522848,21 21,16.522848 21,11 21,5.4771522 16.522848,1 11,1 5.4771522,1 1,5.4771522 1,11 1,16.522848 5.4771522,21 11,21 Z M 10.909274,6.0627415 c 0.359412,0.2972542 1.110116,0.9224971 1.110116,2.1111696 0,1.1571352 -0.65678,1.7043947 -1.313331,2.2201169 -0.203216,0.20333 -0.438083,0.422371 -0.438083,0.766416 0,0.344044 0.234867,0.531777 0.406431,0.672262 l 0.5632,0.437509 c 0.688203,0.578453 1.313331,1.11046 1.313331,2.189612 0,1.469413 -1.422967,2.95511 -4.1124742,2.95511 -2.2669069,0 -3.3615407,-1.078808 -3.3615407,-2.236172 0,-0.562971 0.2815428,-1.360236 1.2043838,-1.907725 0.9691724,-0.594279 2.2829623,-0.671804 2.9861886,-0.719167 -0.2189268,-0.281658 -0.4690469,-0.579026 -0.4690469,-1.063211 0,-0.265832 0.078213,-0.422486 0.1564254,-0.609991 -0.1723661,0.01548 -0.3439295,0.03154 -0.5005842,0.03154 -1.657146,0 -2.5953544,-1.2358067 -2.5953544,-2.4550991 0,-0.7189376 0.3282181,-1.5168907 1.0005951,-2.0953436 C 7.7509489,5.6251174 8.8140453,5.5 9.6583296,5.5 l 3.2209414,0 -1.00071,0.5625122 -0.969287,0 0,2.293e-4 z m -0.656436,3.9721045 c 0.359182,-0.360329 0.390605,-0.8603398 0.390605,-1.1419973 0,-1.1253684 -0.6722626,-2.8768972 -1.9702265,-2.8768972 -0.4065455,0 -0.8442843,0.2034448 -1.0947484,0.516525 -0.2657168,0.3283328 -0.3441589,0.7500162 -0.3441589,1.1566764 0,1.0473851 0.6098756,2.7834321 1.9546295,2.7834321 0.3909489,-1.15e-4 0.8132053,-0.187848 1.0638993,-0.437739 z m -0.453909,2.970592 c -0.1251174,-0.01594 -0.2033301,-0.01594 -0.3594115,-0.01594 -0.1408287,0 -0.9853424,0.03142 -1.642008,0.250579 -0.3439295,0.125117 -1.3446392,0.500011 -1.3446392,1.610356 0,1.110116 1.0788078,1.907266 2.7520091,1.907266 1.5011796,0 2.2984446,-0.718938 2.2984446,-1.688225 0,-0.797723 -0.515837,-1.219522 -1.704395,-2.064035 z"
       id="circle-social_google-plus_outline_stroke"
       inkscape:connector-curvature="0"
       style="fill:#ffffff" />
  </g>
</svg>
