<?xml version="1.0" encoding="UTF-8" standalone="no"?>
<svg width="30px" height="30px" viewBox="0 0 30 30" version="1.1" xmlns="http://www.w3.org/2000/svg" xmlns:xlink="http://www.w3.org/1999/xlink" xmlns:sketch="http://www.bohemiancoding.com/sketch/ns">
    <!-- Generator: Sketch 3.3.2 (12043) - http://www.bohemiancoding.com/sketch -->
    <title>instagram_L</title>
    <desc>Created with Sketch.</desc>
    <defs></defs>
    <g id="Layouts" stroke="none" stroke-width="1" fill="none" fill-rule="evenodd" sketch:type="MSPage">
        <g id="Flair-Pre-Launch-Page" sketch:type="MSArtboardGroup" transform="translate(-1226.000000, -2883.000000)" fill="#FFFFFF">
            <g id="Group" sketch:type="MSLayerGroup" transform="translate(0.000000, 989.000000)">
                <path d="M1245.02499,1905.4 L1250,1905.4 L1250,1902.7 C1250,1901.20883 1248.79102,1900 1247.30522,1900 L1234.69478,1900 C1234.59517,1900 1234.49681,1900.00543 1234.4,1900.01601 L1234.4,1900.01601 L1234.4,1903.6 L1233.8,1903.6 L1233.8,1900.15273 C1232.75154,1900.52308 1232,1901.5255 1232,1902.7 L1232,1905.4 L1236.97501,1905.4 C1237.96379,1904.29525 1239.4007,1903.6 1241,1903.6 C1242.5993,1903.6 1244.03621,1904.29525 1245.02499,1905.4 L1245.02499,1905.4 Z M1245.83869,1906.6 L1250,1906.6 L1250,1912.3 C1250,1915.44162 1247.45012,1918 1244.30469,1918 L1237.69531,1918 C1234.55985,1918 1232,1915.44802 1232,1912.3 L1232,1906.6 L1236.16131,1906.6 C1235.80202,1907.32298 1235.6,1908.1379 1235.6,1909 C1235.6,1911.98234 1238.01766,1914.4 1241,1914.4 C1243.98234,1914.4 1246.4,1911.98234 1246.4,1909 C1246.4,1908.1379 1246.19798,1907.32298 1245.83869,1906.6 L1245.83869,1906.6 Z M1241,1924 C1249.28427,1924 1256,1917.28427 1256,1909 C1256,1900.71573 1249.28427,1894 1241,1894 C1232.71573,1894 1226,1900.71573 1226,1909 C1226,1917.28427 1232.71573,1924 1241,1924 Z M1241,1922.8 C1248.62153,1922.8 1254.8,1916.62153 1254.8,1909 C1254.8,1901.37847 1248.62153,1895.2 1241,1895.2 C1233.37847,1895.2 1227.2,1901.37847 1227.2,1909 C1227.2,1916.62153 1233.37847,1922.8 1241,1922.8 Z M1236.2,1900 L1236.2,1903.6 L1236.8,1903.6 L1236.8,1900 L1236.2,1900 Z M1235,1900 L1235,1903.6 L1235.6,1903.6 L1235.6,1900 L1235,1900 Z M1246.19896,1901.2 C1245.64725,1901.2 1245.2,1901.64266 1245.2,1902.19896 L1245.2,1903.20104 C1245.2,1903.75275 1245.64266,1904.2 1246.19896,1904.2 L1247.20104,1904.2 C1247.75275,1904.2 1248.2,1903.75734 1248.2,1903.20104 L1248.2,1902.19896 C1248.2,1901.64725 1247.75734,1901.2 1247.20104,1901.2 L1246.19896,1901.2 Z M1241,1913.2 C1243.3196,1913.2 1245.2,1911.3196 1245.2,1909 C1245.2,1906.6804 1243.3196,1904.8 1241,1904.8 C1238.6804,1904.8 1236.8,1906.6804 1236.8,1909 C1236.8,1911.3196 1238.6804,1913.2 1241,1913.2 Z" id="instagram_L" sketch:type="MSShapeGroup"></path>
            </g>
        </g>
    </g>
</svg>