<?xml version="1.0" encoding="UTF-8" standalone="no"?><svg width="1001px" height="375px" viewBox="0 0 1001 375" version="1.1" xmlns="http://www.w3.org/2000/svg" xmlns:xlink="http://www.w3.org/1999/xlink" xmlns:sketch="http://www.bohemiancoding.com/sketch/ns">        <title>leflair</title>    <desc>Created with Sketch.</desc>    <defs>        <filter x="-50%" y="-50%" width="200%" height="200%" filterUnits="objectBoundingBox" id="filter-1">            <feOffset dx="0" dy="1" in="SourceAlpha" result="shadowOffsetInner1"></feOffset>            <feGaussianBlur stdDeviation="1.5" in="shadowOffsetInner1" result="shadowBlurInner1"></feGaussianBlur>            <feComposite in="shadowBlurInner1" in2="SourceAlpha" operator="arithmetic" k2="-1" k3="1" result="shadowInnerInner1"></feComposite>            <feColorMatrix values="0 0 0 0 0   0 0 0 0 0   0 0 0 0 0  0 0 0 0.35 0" in="shadowInnerInner1" type="matrix" result="shadowMatrixInner1"></feColorMatrix>            <feMerge>                <feMergeNode in="SourceGraphic"></feMergeNode>                <feMergeNode in="shadowMatrixInner1"></feMergeNode>            </feMerge>        </filter>    </defs>    <g id="Page-1" stroke="none" stroke-width="1" fill="none" fill-rule="evenodd" sketch:type="MSPage">        <g id="le-flair-black-logo" sketch:type="MSArtboardGroup" transform="translate(-4.000000, -5.000000)" filter="url(#filter-1)" fill="#000000">            <path d="M45.3673328,375.172054 L4.5,375.172054 L4.5,5.8889263 L45.3673328,5.8889263 L45.3673328,375.172054 Z M180.962644,225.98167 C167.832511,225.98167 156.507942,229.264154 146.988596,235.82922 C137.46925,242.394286 130.740158,250.928745 126.801118,261.43285 C125.159852,266.35665 124.010983,272.100997 123.354476,278.666063 C138.782382,273.085757 154.127994,267.423472 169.391772,261.679039 C184.655551,255.934606 200.001163,250.272322 215.429069,244.692015 C210.833523,239.111709 205.663611,234.598294 199.919178,231.151634 C194.174745,227.704974 187.855963,225.98167 180.962644,225.98167 L180.962644,225.98167 Z M267.621084,267.833758 C245.299859,276.040091 223.061031,284.2463 200.903933,292.452633 C178.746834,300.658966 156.508006,308.865176 134.186781,317.071508 C139.110581,323.964828 145.593486,329.462988 153.635692,333.566155 C161.677898,337.669321 170.786791,339.720873 180.962644,339.720873 C196.062296,339.720873 208.535735,334.468899 218.383334,323.964793 L243.494587,353.507444 C235.288254,361.713776 225.933175,368.11462 215.429069,372.710166 C204.924963,377.305712 193.43627,379.603451 180.962644,379.603451 C167.176005,379.603451 154.292256,377.059526 142.31101,371.9716 C130.329764,366.883674 119.907878,359.908395 111.045038,351.045556 C102.182199,342.182717 95.2069208,331.924955 90.1189945,320.271962 C85.0310682,308.61897 82.4871432,296.063469 82.4871432,282.605083 C82.4871432,269.474951 85.0310682,257.001512 90.1189945,245.184393 C95.2069208,233.367274 102.182199,223.109512 111.045038,214.410799 C119.907878,205.712086 130.329764,198.81887 142.31101,193.730944 C154.292256,188.643017 167.176005,186.099092 180.962644,186.099092 C191.138496,186.099092 200.903886,188.150645 210.259105,192.253811 C219.614325,196.356978 227.984658,202.019262 235.370358,209.240835 C242.756057,216.462408 249.238963,225.078928 254.819269,235.090654 C260.399576,245.10238 264.666805,256.016639 267.621084,267.833758 L267.621084,267.833758 Z M284.553417,225.98167 L284.553417,186.099092 L316.065577,186.099092 L316.065577,120.612885 C316.065577,102.230699 319.101875,85.9824041 325.174561,71.8675117 C331.247247,57.7526194 339.535519,45.8536154 350.039625,36.1701427 C360.543731,26.4866701 373.099232,19.1010814 387.706504,14.0131551 C402.313776,8.9252288 417.987637,6.05305542 434.728556,5.3965488 L434.728556,44.2943715 C412.079077,45.6073848 393.450981,52.8288493 378.843709,65.9589817 C364.236437,79.0891141 356.93291,97.7992721 356.93291,122.090017 L356.93291,186.099092 L414.541078,186.099092 L414.541078,225.98167 L356.93291,225.98167 L356.93291,375.172054 L316.065577,375.172054 L316.065577,225.98167 L284.553417,225.98167 Z M497.944374,375.172054 L457.077041,375.172054 L457.077041,5.8889263 L497.944374,5.8889263 L497.944374,375.172054 Z M582.824802,282.605083 C582.824802,298.689495 588.158838,312.229741 598.827071,323.226227 C609.495303,334.222713 623.363798,339.720873 640.43297,339.720873 C657.502142,339.720873 671.370636,334.222713 682.038869,323.226227 C692.707101,312.229741 698.041138,298.689495 698.041138,282.605083 C698.041138,266.192418 692.707101,252.652172 682.038869,241.983939 C671.370636,231.315706 657.502142,225.98167 640.43297,225.98167 C623.363798,225.98167 609.495303,231.315706 598.827071,241.983939 C588.158838,252.652172 582.824802,266.192418 582.824802,282.605083 L582.824802,282.605083 Z M541.465092,283.097461 C541.465092,270.295581 544.009017,257.986267 549.096943,246.169148 C554.184869,234.352029 561.160147,224.012205 570.022987,215.149365 C578.885826,206.286526 589.389775,199.229185 601.535147,193.977133 C613.680519,188.72508 626.646331,186.099092 640.43297,186.099092 C649.295809,186.099092 657.502019,187.412086 665.051845,190.038112 C672.601671,192.664139 679.166639,195.536312 684.746945,198.654719 C690.327251,201.773125 694.758605,204.809423 698.041138,207.763703 C701.323671,210.717982 702.964913,212.687473 702.964913,213.672233 C702.964913,210.061446 703.293161,206.28659 703.949668,202.34755 C704.606174,198.40851 704.934423,194.46953 704.934423,190.53049 L738.90847,190.53049 L738.90847,375.172054 L702.964913,375.172054 L702.964913,359.415974 L702.964913,354.984576 C702.964913,355.969336 701.487795,357.774702 698.533515,360.400729 C695.579235,363.026755 691.476131,365.734804 686.224078,368.524957 C680.972025,371.315111 674.489119,373.859036 666.775166,376.156809 C659.061213,378.454582 650.280569,379.603451 640.43297,379.603451 C626.646331,379.603451 613.680519,377.059526 601.535147,371.9716 C589.389775,366.883674 578.885826,359.908395 570.022987,351.045556 C561.160147,342.182717 554.184869,331.924955 549.096943,320.271962 C544.009017,308.61897 541.465092,296.227593 541.465092,283.097461 L541.465092,283.097461 Z M785.875831,119.135752 C785.875831,111.585926 788.501818,105.349207 793.753871,100.425407 C799.005924,95.5016073 804.914395,93.0397444 811.479461,93.0397444 C817.716274,93.0397444 823.460621,95.5016073 828.712674,100.425407 C833.964727,105.349207 836.590714,111.585926 836.590714,119.135752 C836.590714,126.685578 833.964727,132.840235 828.712674,137.599908 C823.460621,142.359581 817.716274,144.739382 811.479461,144.739382 C804.914395,144.739382 799.005924,142.359581 793.753871,137.599908 C788.501818,132.840235 785.875831,126.685578 785.875831,119.135752 L785.875831,119.135752 Z M831.174561,375.172054 L790.307228,375.172054 L790.307228,190.53049 L831.174561,190.53049 L831.174561,375.172054 Z M1001.2363,226.474048 C981.212845,226.474048 965.128675,232.05427 952.983302,243.214883 C940.83793,254.375495 934.765334,268.490176 934.765334,285.559348 L934.765334,375.172054 L893.898002,375.172054 L893.898002,190.53049 L929.841559,190.53049 L929.841559,194.961888 C930.498066,202.839967 931.072501,209.979369 931.564881,216.380309 C932.057261,222.781248 932.631695,229.920651 933.288202,237.79873 C937.227242,229.592398 942.23303,222.288871 948.305716,215.887931 C954.378402,209.486992 960.779246,204.070893 967.508438,199.639474 C974.237631,195.208054 980.802599,191.843508 987.203539,189.545735 C993.604478,187.247962 999.266763,186.099092 1004.19056,186.099092 L1001.2363,226.474048 Z" id="leflair" sketch:type="MSShapeGroup"></path>        </g>    </g></svg>