<?xml version="1.0" encoding="UTF-8" standalone="no"?>
<svg width="107px" height="41px" viewBox="0 0 107 41" version="1.1" xmlns="http://www.w3.org/2000/svg" xmlns:xlink="http://www.w3.org/1999/xlink" xmlns:sketch="http://www.bohemiancoding.com/sketch/ns">
    <!-- Generator: Sketch 3.3.2 (12043) - http://www.bohemiancoding.com/sketch -->
    <title>leflair</title>
    <desc>Created with Sketch.</desc>
    <defs></defs>
    <g id="Layouts" stroke="none" stroke-width="1" fill="none" fill-rule="evenodd" sketch:type="MSPage">
        <g id="Flair-Pre-Launch-Page" sketch:type="MSArtboardGroup" transform="translate(-135.000000, -2898.000000)" fill="#FFFFFF">
            <g id="Group" sketch:type="MSLayerGroup" transform="translate(0.000000, 989.000000)">
                <path d="M139.368421,1949.42632 L135,1949.42632 L135,1909.95263 L139.368421,1909.95263 L139.368421,1949.42632 Z M153.862575,1933.47895 C152.459059,1933.47895 151.248545,1933.82982 150.230996,1934.53158 C149.213447,1935.23334 148.494156,1936.14561 148.073101,1937.26842 C147.897662,1937.79474 147.774856,1938.40877 147.70468,1939.11053 C149.353811,1938.51403 150.994146,1937.90878 152.625733,1937.29474 C154.25732,1936.6807 155.897654,1936.07544 157.546785,1935.47895 C157.055555,1934.88245 156.502929,1934.4 155.888891,1934.03158 C155.274853,1933.66316 154.599421,1933.47895 153.862575,1933.47895 L153.862575,1933.47895 Z M163.125733,1937.95263 C160.739756,1938.82983 158.362587,1939.70701 155.994154,1940.58421 C153.625721,1941.46141 151.248552,1942.33859 148.862575,1943.21579 C149.388893,1943.95264 150.081869,1944.54035 150.941522,1944.97895 C151.801176,1945.41755 152.77485,1945.63684 153.862575,1945.63684 C155.476618,1945.63684 156.809938,1945.07544 157.862575,1943.95263 L160.546785,1947.11053 C159.669588,1947.98772 158.669598,1948.67193 157.546785,1949.16316 C156.423973,1949.65439 155.195915,1949.9 153.862575,1949.9 C152.388883,1949.9 151.011704,1949.62807 149.730996,1949.08421 C148.450288,1948.54035 147.336264,1947.79474 146.388891,1946.84737 C145.441518,1945.9 144.695911,1944.80352 144.152049,1943.55789 C143.608186,1942.31227 143.336259,1940.97018 143.336259,1939.53158 C143.336259,1938.12806 143.608186,1936.79474 144.152049,1935.53158 C144.695911,1934.26841 145.441518,1933.17193 146.388891,1932.24211 C147.336264,1931.31228 148.450288,1930.57544 149.730996,1930.03158 C151.011704,1929.48772 152.388883,1929.21579 153.862575,1929.21579 C154.9503,1929.21579 155.994149,1929.43509 156.994154,1929.87368 C157.994159,1930.31228 158.888887,1930.91754 159.678364,1931.68947 C160.467842,1932.46141 161.160818,1933.38245 161.757312,1934.45263 C162.353806,1935.52281 162.809942,1936.68947 163.125733,1937.95263 L163.125733,1937.95263 Z M164.935676,1933.47895 L164.935676,1929.21579 L168.304097,1929.21579 L168.304097,1922.21579 C168.304097,1920.25087 168.628655,1918.51404 169.277782,1917.00526 C169.926908,1915.49648 170.812864,1914.22457 171.935676,1913.18947 C173.058489,1912.15438 174.400581,1911.36492 175.961992,1910.82105 C177.523403,1910.27719 179.198825,1909.97018 180.988308,1909.9 L180.988308,1914.05789 C178.567243,1914.19825 176.576035,1914.97017 175.014624,1916.37368 C173.453212,1917.7772 172.672518,1919.77718 172.672518,1922.37368 L172.672518,1929.21579 L178.830413,1929.21579 L178.830413,1933.47895 L172.672518,1933.47895 L172.672518,1949.42632 L168.304097,1949.42632 L168.304097,1933.47895 L164.935676,1933.47895 Z M187.74562,1949.42632 L183.377199,1949.42632 L183.377199,1909.95263 L187.74562,1909.95263 L187.74562,1949.42632 Z M196.818721,1939.53158 C196.818721,1941.25089 197.388891,1942.69824 198.529247,1943.87368 C199.669604,1945.04913 201.152045,1945.63684 202.976616,1945.63684 C204.801186,1945.63684 206.283628,1945.04913 207.423984,1943.87368 C208.564341,1942.69824 209.13451,1941.25089 209.13451,1939.53158 C209.13451,1937.77718 208.564341,1936.32983 207.423984,1935.18947 C206.283628,1934.04912 204.801186,1933.47895 202.976616,1933.47895 C201.152045,1933.47895 199.669604,1934.04912 198.529247,1935.18947 C197.388891,1936.32983 196.818721,1937.77718 196.818721,1939.53158 L196.818721,1939.53158 Z M192.397668,1939.58421 C192.397668,1938.21578 192.669595,1936.90001 193.213458,1935.63684 C193.75732,1934.37368 194.502927,1933.26843 195.4503,1932.32105 C196.397673,1931.37368 197.520469,1930.6193 198.818721,1930.05789 C200.116973,1929.49649 201.502924,1929.21579 202.976616,1929.21579 C203.923989,1929.21579 204.801173,1929.35614 205.608195,1929.63684 C206.415216,1929.91755 207.116964,1930.22456 207.713458,1930.55789 C208.309952,1930.89123 208.783631,1931.21579 209.13451,1931.53158 C209.485389,1931.84737 209.660826,1932.05789 209.660826,1932.16316 C209.660826,1931.77719 209.695914,1931.37369 209.766089,1930.95263 C209.836265,1930.53158 209.871353,1930.11053 209.871353,1929.68947 L213.502931,1929.68947 L213.502931,1949.42632 L209.660826,1949.42632 L209.660826,1947.74211 L209.660826,1947.26842 C209.660826,1947.37368 209.502933,1947.56667 209.187142,1947.84737 C208.871351,1948.12807 208.432759,1948.41754 207.871353,1948.71579 C207.309946,1949.01404 206.616971,1949.28596 205.792405,1949.53158 C204.96784,1949.77719 204.029253,1949.9 202.976616,1949.9 C201.502924,1949.9 200.116973,1949.62807 198.818721,1949.08421 C197.520469,1948.54035 196.397673,1947.79474 195.4503,1946.84737 C194.502927,1945.9 193.75732,1944.80352 193.213458,1943.55789 C192.669595,1942.31227 192.397668,1940.98773 192.397668,1939.58421 L192.397668,1939.58421 Z M218.523401,1922.05789 C218.523401,1921.25087 218.8041,1920.58421 219.365506,1920.05789 C219.926913,1919.53158 220.558485,1919.26842 221.260243,1919.26842 C221.926913,1919.26842 222.540942,1919.53158 223.102349,1920.05789 C223.663755,1920.58421 223.944454,1921.25087 223.944454,1922.05789 C223.944454,1922.86492 223.663755,1923.5228 223.102349,1924.03158 C222.540942,1924.54035 221.926913,1924.79474 221.260243,1924.79474 C220.558485,1924.79474 219.926913,1924.54035 219.365506,1924.03158 C218.8041,1923.5228 218.523401,1922.86492 218.523401,1922.05789 L218.523401,1922.05789 Z M223.365506,1949.42632 L218.997085,1949.42632 L218.997085,1929.68947 L223.365506,1929.68947 L223.365506,1949.42632 Z M241.543871,1933.53158 C239.403509,1933.53158 237.684228,1934.12806 236.385976,1935.32105 C235.087724,1936.51404 234.438608,1938.0228 234.438608,1939.84737 L234.438608,1949.42632 L230.070187,1949.42632 L230.070187,1929.68947 L233.912292,1929.68947 L233.912292,1930.16316 C233.982468,1931.00527 234.043871,1931.76842 234.096502,1932.45263 C234.149134,1933.13685 234.210537,1933.9 234.280713,1934.74211 C234.701768,1933.86491 235.23685,1933.08421 235.885976,1932.4 C236.535102,1931.71579 237.219306,1931.13684 237.938608,1930.66316 C238.65791,1930.18947 239.359657,1929.82983 240.043871,1929.58421 C240.728085,1929.3386 241.333342,1929.21579 241.85966,1929.21579 L241.543871,1933.53158 Z" id="leflair" sketch:type="MSShapeGroup"></path>
            </g>
        </g>
    </g>
</svg>