<?xml version="1.0" encoding="UTF-8" standalone="no"?>
<svg width="30px" height="31px" viewBox="0 0 30 31" version="1.1" xmlns="http://www.w3.org/2000/svg" xmlns:xlink="http://www.w3.org/1999/xlink" xmlns:sketch="http://www.bohemiancoding.com/sketch/ns">
    <!-- Generator: Sketch 3.3.2 (12043) - http://www.bohemiancoding.com/sketch -->
    <title>linkedin_L</title>
    <desc>Created with Sketch.</desc>
    <defs></defs>
    <g id="Layouts" stroke="none" stroke-width="1" fill="none" fill-rule="evenodd" sketch:type="MSPage">
        <g id="Flair-Pre-Launch-Page" sketch:type="MSArtboardGroup" transform="translate(-1272.000000, -2883.000000)" fill="#FFFFFF">
            <g id="Group" sketch:type="MSLayerGroup" transform="translate(0.000000, 989.000000)">
                <path d="M1287,1924.3 C1295.28427,1924.3 1302,1917.58427 1302,1909.3 C1302,1901.01573 1295.28427,1894.3 1287,1894.3 C1278.71573,1894.3 1272,1901.01573 1272,1909.3 C1272,1917.58427 1278.71573,1924.3 1287,1924.3 Z M1287,1923.1 C1294.62153,1923.1 1300.8,1916.92153 1300.8,1909.3 C1300.8,1901.67847 1294.62153,1895.5 1287,1895.5 C1279.37847,1895.5 1273.2,1901.67847 1273.2,1909.3 C1273.2,1916.92153 1279.37847,1923.1 1287,1923.1 Z M1282.71402,1916.5 L1282.71402,1905.21538 L1279.31725,1905.21538 L1279.31725,1916.5 L1282.71402,1916.5 Z M1281.01564,1900.3 C1279.92063,1900.3 1279.20552,1901.06154 1279.22786,1902.07692 C1279.20552,1903.04615 1279.92063,1903.83077 1280.99329,1903.83077 C1282.11065,1903.83077 1282.82576,1903.04615 1282.82576,1902.07692 C1282.80341,1901.06154 1282.11065,1900.3 1281.01564,1900.3 Z M1285.44038,1916.5 L1288.83715,1916.5 L1288.83715,1909.99231 C1288.83715,1909.66923 1288.88184,1909.32308 1288.97123,1909.11538 C1289.1947,1908.46923 1289.75338,1907.8 1290.69196,1907.8 C1291.92106,1907.8 1292.4127,1908.79231 1292.4127,1910.24615 L1292.4127,1916.5 L1295.80947,1916.5 L1295.80947,1909.80769 C1295.80947,1906.48462 1294.13343,1904.96154 1291.89871,1904.96154 C1290.08859,1904.96154 1288.97123,1906.04615 1288.52429,1906.76154 L1288.45725,1906.76154 L1288.30082,1905.21538 L1285.35099,1905.21538 C1285.39568,1906.20769 1285.44038,1907.40769 1285.44038,1908.81538 L1285.44038,1916.5 Z" id="linkedin_L" sketch:type="MSShapeGroup"></path>
            </g>
        </g>
    </g>
</svg>